<mxfile host="app.diagrams.net" agent="Mozilla/5.0 (Windows NT 10.0; Win64; x64) AppleWebKit/537.36 (KHTML, like Gecko) Chrome/130.0.0.0 Safari/537.36" version="24.8.3">
  <diagram name="Página-1" id="6RzQy8bzMf23kyaS_7zr">
    <mxGraphModel dx="1114" dy="558" grid="1" gridSize="10" guides="1" tooltips="1" connect="1" arrows="1" fold="1" page="1" pageScale="1" pageWidth="827" pageHeight="1169" math="0" shadow="0">
      <root>
        <mxCell id="0" />
        <mxCell id="1" parent="0" />
        <mxCell id="jPXjNLpSxqyoNw8Wr4H1-10" value="" style="edgeStyle=orthogonalEdgeStyle;rounded=0;orthogonalLoop=1;jettySize=auto;html=1;" edge="1" parent="1" source="jPXjNLpSxqyoNw8Wr4H1-1" target="jPXjNLpSxqyoNw8Wr4H1-9">
          <mxGeometry relative="1" as="geometry">
            <Array as="points">
              <mxPoint x="400" y="470" />
              <mxPoint x="310" y="470" />
            </Array>
          </mxGeometry>
        </mxCell>
        <mxCell id="jPXjNLpSxqyoNw8Wr4H1-13" value="" style="edgeStyle=orthogonalEdgeStyle;rounded=0;orthogonalLoop=1;jettySize=auto;html=1;entryX=0.5;entryY=0;entryDx=0;entryDy=0;" edge="1" parent="1" source="jPXjNLpSxqyoNw8Wr4H1-1" target="jPXjNLpSxqyoNw8Wr4H1-12">
          <mxGeometry relative="1" as="geometry">
            <Array as="points">
              <mxPoint x="400" y="470" />
              <mxPoint x="560" y="470" />
            </Array>
          </mxGeometry>
        </mxCell>
        <mxCell id="jPXjNLpSxqyoNw8Wr4H1-16" value="" style="edgeStyle=orthogonalEdgeStyle;rounded=0;orthogonalLoop=1;jettySize=auto;html=1;" edge="1" parent="1" source="jPXjNLpSxqyoNw8Wr4H1-1" target="jPXjNLpSxqyoNw8Wr4H1-15">
          <mxGeometry relative="1" as="geometry">
            <Array as="points">
              <mxPoint x="400" y="470" />
              <mxPoint x="800" y="470" />
            </Array>
          </mxGeometry>
        </mxCell>
        <mxCell id="jPXjNLpSxqyoNw8Wr4H1-21" style="edgeStyle=orthogonalEdgeStyle;rounded=0;orthogonalLoop=1;jettySize=auto;html=1;entryX=0.5;entryY=0;entryDx=0;entryDy=0;" edge="1" parent="1" source="jPXjNLpSxqyoNw8Wr4H1-1" target="jPXjNLpSxqyoNw8Wr4H1-6">
          <mxGeometry relative="1" as="geometry">
            <Array as="points">
              <mxPoint x="400" y="470" />
              <mxPoint x="80" y="470" />
            </Array>
          </mxGeometry>
        </mxCell>
        <mxCell id="jPXjNLpSxqyoNw8Wr4H1-1" value="Desarrollo de XEJEL" style="rounded=0;whiteSpace=wrap;html=1;" vertex="1" parent="1">
          <mxGeometry x="340" y="360" width="120" height="60" as="geometry" />
        </mxCell>
        <mxCell id="jPXjNLpSxqyoNw8Wr4H1-23" value="" style="edgeStyle=orthogonalEdgeStyle;rounded=0;orthogonalLoop=1;jettySize=auto;html=1;" edge="1" parent="1" source="jPXjNLpSxqyoNw8Wr4H1-6" target="jPXjNLpSxqyoNw8Wr4H1-22">
          <mxGeometry relative="1" as="geometry">
            <Array as="points">
              <mxPoint x="80" y="620" />
              <mxPoint x="180" y="620" />
            </Array>
          </mxGeometry>
        </mxCell>
        <mxCell id="jPXjNLpSxqyoNw8Wr4H1-25" value="" style="edgeStyle=orthogonalEdgeStyle;rounded=0;orthogonalLoop=1;jettySize=auto;html=1;" edge="1" parent="1" source="jPXjNLpSxqyoNw8Wr4H1-6" target="jPXjNLpSxqyoNw8Wr4H1-24">
          <mxGeometry relative="1" as="geometry">
            <Array as="points">
              <mxPoint x="80" y="720" />
              <mxPoint x="180" y="720" />
            </Array>
          </mxGeometry>
        </mxCell>
        <mxCell id="jPXjNLpSxqyoNw8Wr4H1-28" value="" style="edgeStyle=orthogonalEdgeStyle;rounded=0;orthogonalLoop=1;jettySize=auto;html=1;" edge="1" parent="1" source="jPXjNLpSxqyoNw8Wr4H1-6" target="jPXjNLpSxqyoNw8Wr4H1-27">
          <mxGeometry relative="1" as="geometry">
            <Array as="points">
              <mxPoint x="80" y="830" />
              <mxPoint x="180" y="830" />
            </Array>
          </mxGeometry>
        </mxCell>
        <mxCell id="jPXjNLpSxqyoNw8Wr4H1-6" value="Planeacion&lt;div&gt;1.1&lt;/div&gt;" style="rounded=0;whiteSpace=wrap;html=1;" vertex="1" parent="1">
          <mxGeometry x="20" y="540" width="120" height="60" as="geometry" />
        </mxCell>
        <mxCell id="jPXjNLpSxqyoNw8Wr4H1-9" value="&lt;div&gt;Diseño&lt;/div&gt;&lt;div&gt;1.2&lt;/div&gt;" style="whiteSpace=wrap;html=1;rounded=0;" vertex="1" parent="1">
          <mxGeometry x="250" y="540" width="120" height="60" as="geometry" />
        </mxCell>
        <mxCell id="jPXjNLpSxqyoNw8Wr4H1-12" value="&lt;div&gt;Construccion&lt;/div&gt;&lt;div&gt;1.3&lt;/div&gt;" style="whiteSpace=wrap;html=1;rounded=0;" vertex="1" parent="1">
          <mxGeometry x="500" y="540" width="120" height="60" as="geometry" />
        </mxCell>
        <mxCell id="jPXjNLpSxqyoNw8Wr4H1-15" value="Finalizacion&lt;div&gt;1.4&lt;/div&gt;" style="whiteSpace=wrap;html=1;rounded=0;" vertex="1" parent="1">
          <mxGeometry x="740" y="540" width="120" height="60" as="geometry" />
        </mxCell>
        <mxCell id="jPXjNLpSxqyoNw8Wr4H1-22" value="" style="whiteSpace=wrap;html=1;rounded=0;" vertex="1" parent="1">
          <mxGeometry x="120" y="640" width="120" height="60" as="geometry" />
        </mxCell>
        <mxCell id="jPXjNLpSxqyoNw8Wr4H1-24" value="" style="whiteSpace=wrap;html=1;rounded=0;" vertex="1" parent="1">
          <mxGeometry x="120" y="750" width="120" height="60" as="geometry" />
        </mxCell>
        <mxCell id="jPXjNLpSxqyoNw8Wr4H1-27" value="" style="whiteSpace=wrap;html=1;rounded=0;" vertex="1" parent="1">
          <mxGeometry x="120" y="860" width="120" height="60" as="geometry" />
        </mxCell>
      </root>
    </mxGraphModel>
  </diagram>
</mxfile>
